<mxfile host="app.diagrams.net" modified="2024-02-27T09:47:27.130Z" agent="Mozilla/5.0 (Macintosh; Intel Mac OS X 10_15_7) AppleWebKit/537.36 (KHTML, like Gecko) Chrome/121.0.0.0 Safari/537.36" version="23.1.7" etag="86I5V-t92_ZAWKhSvOZ9" type="github">
  <diagram name="Page-1" id="qs88NyAF8xdPhE5gjBOg">
    <mxGraphModel>
      <root>
        <mxCell id="0" />
        <mxCell id="1" parent="0" />
      </root>
    </mxGraphModel>
  </diagram>
</mxfile>
